<?xml version="1.0" encoding="utf-8"?>
<!-- Generator: Adobe Illustrator 22.0.1, SVG Export Plug-In . SVG Version: 6.00 Build 0)  -->
<svg version="1.1" id="Layer_1" xmlns="http://www.w3.org/2000/svg" xmlns:xlink="http://www.w3.org/1999/xlink" x="0px" y="0px"
	 viewBox="0 0 283.5 283.5" style="enable-background:new 0 0 283.5 283.5;" xml:space="preserve">
<style type="text/css">
	.st0{display:none;fill:#A6A6A6;}
	.st1{fill:#FFBF31;}
	.st2{fill:#CE1126;}
	.st3{fill:#006B3F;}
</style>
<ellipse class="st0" cx="140.6" cy="142.6" rx="92.4" ry="92.2"/>
<g>
	<g>
		<path d="M50.7,156c0.3,1.8-0.6,3-2,3.2c-0.9,0.1-1.8-0.3-2.2-1.1c-0.1,0.9-0.7,1.8-1.9,1.9c-1.5,0.2-2.8-0.8-3-2.5l-0.5-3.7
			l9.1-1.3L50.7,156z M43.2,156.9c0.1,0.8,0.6,1.2,1.3,1.1c0.6-0.1,1-0.6,0.9-1.4l-0.2-1.3l-2.1,0.3L43.2,156.9z M47,156.2
			c0.1,0.7,0.5,1.1,1.2,1c0.6-0.1,0.9-0.5,0.8-1.3l-0.2-1.1l-2,0.3L47,156.2z"/>
		<path d="M46,163.4l5.7-1.5l0.5,2l-5.5,1.4c-1.1,0.3-1.5,1-1.2,2c0.2,0.9,0.9,1.4,2,1.1L53,167l0.5,2l-5.7,1.5
			c-2.2,0.6-3.8-0.7-4.3-2.6C43,165.9,43.8,164,46,163.4z"/>
		<path d="M53.7,177.5c0.4-0.2,0.9-0.8,0.5-1.8c-0.3-0.7-0.9-1-1.4-0.8c-0.4,0.2-0.6,0.5-0.5,1.2l0.2,1.2c0.3,1.8-0.4,3-1.6,3.5
			c-1.3,0.5-3.2-0.1-3.9-2.1c-0.9-2.4,0.2-4,1.4-4.6l1.1,1.6c-0.8,0.4-1.2,1.2-0.8,2.4c0.3,0.8,0.8,1.1,1.4,0.9
			c0.4-0.2,0.6-0.6,0.5-1.3l-0.2-1.3c-0.3-1.6,0.3-2.8,1.6-3.3c1.6-0.6,3.3,0.4,4,2c0.8,2.1-0.1,3.5-1.1,4L53.7,177.5z"/>
		<path d="M53,183.7l5.2-2.7l0.9,1.8l-5.1,2.6c-1,0.5-1.2,1.3-0.8,2.2s1.2,1.2,2.2,0.6l5.1-2.6l0.9,1.8l-5.2,2.7
			c-2.1,1.1-3.9,0.2-4.8-1.6S50.9,184.7,53,183.7z"/>
		<path d="M60.2,198.9l-2-2.9l-1.9,0.5l-1.2-1.8l9.6-2.3l1.3,2l-5.7,8l-1.3-1.8L60.2,198.9z M60.1,195.4l1.3,1.9l2-2.7L60.1,195.4z"
			/>
		<path d="M74.4,204.6c1.2,1.3,1.2,2.8,0.2,3.8c-0.7,0.6-1.7,0.7-2.4,0.4c0.4,0.7,0.4,1.9-0.5,2.7c-1.1,1-2.7,0.9-3.9-0.3l-2.5-2.7
			l6.7-6.3L74.4,204.6z M68.7,209.6c0.5,0.6,1.2,0.6,1.7,0.2c0.5-0.4,0.5-1.1-0.1-1.7l-0.9-0.9l-1.6,1.5L68.7,209.6z M71.4,206.9
			c0.5,0.5,1.1,0.6,1.5,0.2c0.4-0.4,0.4-1-0.1-1.6l-0.7-0.8l-1.5,1.4L71.4,206.9z"/>
		<path d="M72.5,215.7l6.1-6.9l4.4,3.9l-1.3,1.5l-2.8-2.5l-1.2,1.3l2.6,2.3l-1.2,1.4l-2.6-2.3l-1.2,1.3l2.9,2.5l-1.3,1.5L72.5,215.7
			z"/>
		<path d="M85.8,223.9l-2.9-2l-1.6,1.2l-1.8-1.2l8.1-5.6l2,1.4l-2.5,9.5l-1.8-1.3L85.8,223.9z M84.5,220.7l1.8,1.3l0.9-3.2
			L84.5,220.7z"/>
		<path d="M91.7,224.5c1.3-2.5,4.2-3.2,6.5-2c2.4,1.3,2.7,3.4,2.3,4.8l-2-0.4c0.2-0.6,0.2-1.9-1.3-2.6c-1.1-0.6-2.7-0.5-3.6,1.3
			c-0.8,1.5-0.2,3,1.1,3.7c1.4,0.8,2.5,0.1,2.9-0.4l1.5,1.4c-0.9,1-2.9,2.1-5.4,0.8C91.3,229.8,90.4,227.1,91.7,224.5z"/>
		<path d="M107,236.7l1.3-3.4l-3.4-1.3l-1.3,3.4l-1.9-0.7l3.2-8.6l1.9,0.7l-1.3,3.4l3.4,1.3l1.3-3.4l1.9,0.7l-3.2,8.6L107,236.7z"/>
		<path d="M118.1,235.3c0.5-2.8,3-4.3,5.6-3.8c2.6,0.5,3.6,2.4,3.7,3.8l-2.1,0.2c0-0.6-0.4-1.7-1.9-2c-1.3-0.2-2.8,0.3-3.2,2.3
			c-0.4,1.9,0.7,3.1,2.1,3.3c1,0.2,2-0.1,2.4-1l-3-0.6l0.3-1.8l5.1,1c0,0.3-0.1,0.6-0.1,0.8c-0.5,2.3-2.5,3.9-5.1,3.4
			C119.2,240.4,117.5,238.1,118.1,235.3z"/>
		<path d="M136.3,242.4l0.2-3.7l-3.7-0.2l-0.2,3.7l-2-0.1l0.6-9.2l2,0.1l-0.2,3.6l3.7,0.2l0.2-3.6l2.1,0.1l-0.6,9.2L136.3,242.4z"/>
		<path d="M148.6,240.2l-3.6,0.2l-0.5,1.9l-2.2,0.1l2.9-9.4l2.4-0.2l4,9l-2.2,0.1L148.6,240.2z M145.6,238.6l2.2-0.1l-1.3-3.1
			L145.6,238.6z"/>
		<path d="M161.4,240.3l-4.9-5.2l1.1,6l-2,0.4l-1.7-9.1l2.5-0.5l4.5,4.9l-1.1-5.5l2-0.4l1.7,9.1L161.4,240.3z"/>
		<path d="M172.9,235.1l-3.4,1.1l0,2l-2,0.7l0.4-9.8l2.3-0.7l6.1,7.7l-2.1,0.7L172.9,235.1z M169.6,234.2l2.1-0.7l-2-2.7
			L169.6,234.2z"/>
	</g>
	<g>
		<path class="st1" d="M109.1,174L109.1,174L109.1,174C109.1,174,109.1,174,109.1,174z"/>
		<path class="st2" d="M164.3,115.7c0-0.1,0.1-0.1,0.1-0.2h-0.2C164.2,115.6,164.3,115.7,164.3,115.7z"/>
		<g>
			<path class="st2" d="M191.4,78l1.1-6c0,0-4.6-2-3.6-5.2l3.2,2.5l0.2-4.5c0,0-2.6-2.6-1.9-3.9l2,1.2c0,0,3-12.8,5.6-16.6
				c0,0-9.8,1.6-14.1,13.7C184,59.2,177.7,71,191.4,78z"/>
			<path class="st2" d="M184.1,97.3l4.6-4c-13-8.2-19.9,3.3-19.9,3.3c-7.5,9-5.1,17.5-4.6,18.9h0.2c2.1-4.3,11.3-13.1,11.3-13.1
				l-2.1-1.1c0.7-1.3,4.3-0.4,4.3-0.4l3.8-2.5l-3.8-1.5C180,94.4,184.1,97.3,184.1,97.3z"/>
			<path class="st2" d="M163.6,85.3c1.4-1.2,5.2,1.2,5.2,1.2l5.4-1.5l-4-3.2c3.7-2,7.4,3,7.4,3l7-3C172.3,67,159.8,78,159.8,78
				C146.3,86.5,147,98.9,147,98.9c3.9-4.3,18.6-11.4,18.6-11.4L163.6,85.3z"/>
			<path class="st2" d="M204.2,78.7c0,0-1.6-4,1-5.5l0.4,3.6l2.9-2.7c0,0,0-3.2,1.2-3.5l0.5,2c0,0,9.6-6,13.6-6.8c0,0-7-5-17-0.2
				c0,0-11.1,3.4-6.9,16.1L204.2,78.7z"/>
			<path class="st2" d="M196.6,98.2l-0.1-5.3c-12.7,4-9,15-9,15c0.6,3.2,1.6,5.6,2.9,7.6c0.1,0.1,0.2,0.3,0.3,0.4h5.5
				c0-0.1,0-0.3-0.1-0.4c-0.6-4.3-0.9-8.9-0.9-8.9l-1.9,0.8c-0.4-1.2,2.1-3,2.1-3l0.5-3.9l-3.1,1.7
				C192.4,99.3,196.6,98.2,196.6,98.2z"/>
			
				<ellipse transform="matrix(0.8403 -0.5421 0.5421 0.8403 -13.9562 119.6893)" class="st2" cx="196.2" cy="83.5" rx="2.3" ry="2.3"/>
			
				<ellipse transform="matrix(0.8404 -0.542 0.542 0.8404 -14.8369 116.3702)" class="st2" cx="190.1" cy="83.4" rx="2.3" ry="2.3"/>
			
				<ellipse transform="matrix(0.8403 -0.5421 0.5421 0.8403 -17.0967 119.0421)" class="st2" cx="193.5" cy="88.5" rx="2.3" ry="2.3"/>
			<path class="st2" d="M215,107.9c-3.2-7-7.4-13.5-12.5-19.4l-0.5-0.6l-1.4,1.8l0,0l-1.3,1.8c6.3,6.8,11.2,14.9,14.3,24
				c0,0.1,0.1,0.3,0.1,0.4h4.7c-0.1-0.1-0.1-0.3-0.1-0.4C217.3,112.9,216.2,110.3,215,107.9z"/>
			<path class="st2" d="M126.4,61.7L126.4,61.7L126.4,61.7c-21.7,3.9-40.5,16.1-53,34.1c-4.3,6.1-7.6,12.7-10,19.6
				c0,0.1-0.1,0.3-0.1,0.4h1.6c0.1-0.1,0.1-0.3,0.2-0.4c4.8-13.4,13.6-25.2,25-33.7l1.5-0.8c3-1,7-0.2,8.5,3c2.3,4.7-2,8.4-4.7,10.2
				c-9.5,4.6-17.7,11.5-23.9,20.4c-0.2,0.3-0.5,0.7-0.7,1c-0.1,0.1-0.2,0.3-0.3,0.4h3.6c0.1-0.1,0.1-0.3,0.2-0.4
				c0.7-1.8,1.4-3.6,2.2-5.3c0.7-0.8,1.4-1.6,2.1-2.4c-1.2,2.5-2.2,5.1-3.1,7.7c-0.1,0.1-0.1,0.3-0.2,0.4H85c0-0.1,0.1-0.3,0.1-0.4
				c2.5-7.4,6.3-14.3,11.2-20.4l0.5-0.3c1-0.5,2.1-0.9,3.1-1.3c-5.3,6.5-9.3,13.9-11.9,22c0,0.1-0.1,0.3-0.1,0.4h7.4
				c0-0.1,0.1-0.3,0.1-0.4c2.6-9.2,7.2-17.6,13.4-24.7c0.8-0.2,1.6-0.4,2.4-0.5c0.3-0.1,0.7-0.1,1-0.1c-6.8,7.3-11.6,16-14.1,25.4
				c0,0.1-0.1,0.3-0.1,0.4h9.6c0-0.1,0.1-0.3,0.1-0.4c1.8-9.3,6-18.2,12.5-25.6l0.7,0c-6,7.5-9.8,16.3-11.2,25.6
				c0,0.1-0.1,0.3-0.1,0.4h7c0-0.1,0-0.3,0.1-0.4c1.5-9.7,5.8-18.8,12.6-26.3l0.1-0.1c2.9-0.5,5.5-1.9,7.5-4.1
				c2.5-2.7,3.9-6.2,3.7-9.9C140.4,67.5,134,61.5,126.4,61.7z M109.4,85.6c-0.6,1.9-1.9,3.5-3.6,4.4l-0.3,0.2v0
				c-1.3,0.4-2.6,0.8-3.9,1.2c2.2-2.5,2.9-6,1.7-9.2c-0.9-2.3-2.6-4.1-4.8-5c-0.2-0.1-0.4-0.2-0.6-0.2c5-2,8.9-0.9,11.1,3.1
				C109.9,81.8,110.1,83.7,109.4,85.6z M110.9,88.6c2.2-2.8,3-6.7,1.7-10.3c-1-2.6-2.9-4.7-5.5-5.9c0,0-0.1,0-0.1,0
				c0.2-0.1,0.5-0.2,0.7-0.3c3.3-0.8,5.7,0,7.3,0.8c2.3,1.3,3.9,3.5,4.4,5.9c0.4,1.9-0.3,4.1-1.7,6C116,86.8,113.6,88.2,110.9,88.6z
				 M122,87.6l-3.4,0.3c3.1-2.1,5.1-5.7,4.9-9.7c-0.1-3.6-1.9-6.7-4.5-8.7c1.9-0.2,3.8,0.2,5.5,1.1c2.5,1.4,4.2,3.7,4.7,6.4
				C130.1,81.9,126.9,86.6,122,87.6z M129,86.9c0.5-0.4,0.9-0.8,1.3-1.2c2.4-2.6,3.7-5.9,3.6-9.5c-0.1-2.7-0.9-5.2-2.5-7.3
				c0.3,0.2,0.7,0.4,1,0.6c1.9,1.4,3.1,3.5,3.4,6.3C136.5,81,133.6,85.5,129,86.9z"/>
		</g>
		<path class="st3" d="M146.8,224.3c2.7-0.2,5.4-0.6,8.1-1.1c12.4-2.3,23.9-7.2,33.8-14.5c12.8,0.8,26.1,1.2,36.5,0.3
			c10.9-0.9,18.5-3,19-7.2c0.8-6.2-15-11.9-34-16.3c0,0,0,0,0,0c1.1-1.8,2.4-4,3.3-5.9c1-1.9,2-3.8,2.8-5.7h-1.6
			c-0.7,1.7-1.5,3.4-2.4,5.1c-1.1,1.9-2.5,4.2-3.8,6.1c0,0,0,0,0,0v0c-0.4-0.1-0.8-0.2-1.3-0.3v0c2.5-3.5,4.7-7.1,6.6-11h-11.5
			c-2.7,3-5.6,5.7-8.8,8.2c-0.8-0.2-1.7-0.3-2.5-0.5v0c3.3-2.2,6.3-4.8,9.1-7.7h-11.6c-4,2.3-8.4,4-12.9,5.2
			c-3.2-0.5-6.3-0.9-9.2-1.3c0.4,0,0.8,0,1.2-0.1c1.8-0.1,3.6-0.4,5.4-0.7c3.8-0.7,7.4-1.7,10.8-3.1h-23.4l1.2,3.3l0.2,0.7l1.1,3
			l0.1,0.2l2.7,7.6c0.1,0.2,0.2,0.4,0.3,0.5l1.6,2l0.7,0.9l-3.7-0.4l-2.7-0.3l-4.7-10.7l-0.1-0.3l-1.3-3l-0.4-0.8v0l-1.2-2.6h-37.2
			l0,0.2l0.1,3.7v0l0,0c0,0,0,0,0,0c0,0,0,0,0,0l0.1,3.3c0,0.3,0.1,0.5,0.2,0.8l0,0c0,0,0,0,0,0l1.3,2.5l-5.3-0.4l-0.5-5.9v0l0-0.3
			l-0.3-3.7l0-0.1h-3.7l0,0.1c0,0,0,0,0-0.1h-12c0.2,0.3,0.4,0.5,0.5,0.8c-1.6,0.2-3.2,0.3-4.6,0.5c-0.3-0.4-0.6-0.9-0.8-1.3H78.7
			c0.9,1.8,1.8,3.5,2.8,5.2v0c-0.8,0.7-1.3,1.5-1.4,2.4c-1.5-2.5-2.8-5-4-7.7H64.3C78,206.9,111.7,227.1,146.8,224.3z M159.2,217.4
			c-20,3.6-40.3-0.7-57-12.3c-7-4.9-13.1-10.8-18-17.5c1.6,1.1,3.5,2.1,5.9,3.1v0l0,0c16.9,19,43,29,69.9,24.1
			c7.2-1.3,14-3.6,20.2-6.7c1.2,0.1,2.5,0.2,3.7,0.3C176.2,212.7,167.9,215.8,159.2,217.4z M123.6,200.1l29.2,5
			C142.6,205.7,132.6,203.9,123.6,200.1z M95.5,178.7c1.5-0.2,3.1-0.3,4.9-0.5c1.9-0.1,3.9-0.2,6.2-0.3c0.9,0,1.9-0.1,2.8-0.1
			l0.7,8.1c0.1,0.9,0.8,1.6,1.7,1.7l10.1,0.7c0.1,0,0.2,0,0.3,0c0.6,0,1.1-0.3,1.4-0.8c0.3-0.4,0.4-0.9,0.3-1.4c0,0,0,0,0,0
			c0-0.1-0.1-0.3-0.2-0.4l-2.4-4.7l-0.2-0.4l-0.1-2.7c8.9,0.2,18.8,0.9,29.2,1.9l0,0c1,0.2,2,0.4,3,0.5l5.3,12l0.7,1.6
			c0.1,0.3,0.4,0.6,0.7,0.8c0.2,0.2,0.5,0.3,0.8,0.3l11.9,1.3c0.1,0,0.2,0,0.4,0c0.6,0,1.2-0.4,1.5-1c0.4-0.7,0.3-1.5-0.2-2l-0.8-1
			l-1.6-1.9l-2.6-3.1l-2-5.6c6.6,0.9,13.1,1.8,19.3,2.9c1,0.2,1.9,0.3,2.9,0.5c1.9,0.3,3.7,0.7,5.5,1c0.5,0.1,0.9,0.2,1.4,0.3
			c3,0.6,5.8,1.2,8.6,1.8c0.5,0.1,0.9,0.2,1.4,0.3v0c0.6,0.1,1.2,0.3,1.8,0.4c4.1,0.9,7.9,1.9,11.4,2.9c17.6,5,21.2,8.8,21.1,9.7
			c-0.1,0.9-4.6,3.7-22.8,4.3c-7.3,0.2-15.6,0.1-24.7-0.4c-1.4-0.1-2.8-0.2-4.2-0.2c-1-0.1-2.1-0.1-3.1-0.2
			c-6.3-0.5-12.9-1.1-19.6-1.8c-1.8-0.2-3.5-0.4-5.3-0.6c-1.4-0.2-2.8-0.4-4.2-0.5c-11.1-1.4-21.7-3.2-31.3-5.1
			c-4.9-1-9.6-2-13.9-3.1c-2.3-0.6-4.5-1.2-6.6-1.8c-17.6-5-21.2-8.8-21.1-9.7C83.8,181.5,86.4,179.7,95.5,178.7z"/>
		<g>
			<path class="st1" d="M90.2,170.7c-3.6-6.4-6.3-13.5-7.7-21.2c-2.1-11.7-1.1-23.1,2.4-33.6h-9.7c-4.1,11.9-5.5,25-3.1,38.3
				c1.1,5.8,2.8,11.4,5,16.6c0.1,0.1,0.1,0.3,0.2,0.4c0.4,0.9,0.9,1.9,1.3,2.8h13.5c-0.6-0.9-1.1-1.8-1.7-2.8
				C90.4,171,90.3,170.9,90.2,170.7z"/>
			<path class="st1" d="M74.8,170.7c-1.9-4.7-3.3-9.6-4.2-14.7c-2.5-13.6-1.2-27.4,3.5-40.2h-3.6c-5.5,8.4-8.8,17.8-9.7,27.6
				c-0.5-9.6,1-18.9,4-27.6h-1.6c-4.6,13.2-5.7,27.4-3.1,41.5c0.1,0.2,0.6,2.8,1.6,6.3c0.5,3,1.1,5.4,1.5,7c0,0.2,0.1,0.3,0.1,0.4
				c0.3,1,0.5,1.6,0.5,1.7c0.1,0.4,0.3,0.7,0.5,1.1h11.8c-0.4-0.9-0.8-1.9-1.2-2.8C74.9,171,74.8,170.9,74.8,170.7z"/>
			<path class="st1" d="M106.4,170.7c-6-7.7-10.4-17-12.2-27.3c-1.7-9.5-1.2-18.8,1.2-27.5h-7.4c-3.1,9.9-3.9,20.7-1.9,31.6
				c1.5,8.5,4.7,16.4,9,23.3c0.1,0.1,0.2,0.3,0.3,0.4c0.6,0.9,1.2,1.9,1.9,2.8h12c-0.8-0.9-1.6-1.8-2.4-2.8
				C106.6,171,106.5,170.9,106.4,170.7z"/>
			<path class="st1" d="M167.5,131.6c0.2-0.1,0.4,0,0.5,0l0.6-1.2c-0.5-0.2-1-0.3-1.5-0.1c-0.5,0.2-0.9,0.5-1.2,1
				c-0.2,0.5-0.3,1-0.1,1.5c0.2,0.5,0.5,0.9,1,1.2l0.6-1.2c-0.2-0.1-0.3-0.2-0.4-0.4c-0.1-0.2,0-0.4,0-0.5
				C167.2,131.8,167.3,131.6,167.5,131.6z"/>
			<path class="st2" d="M197.6,121.6c-0.6-1.3-1.1-3.4-1.4-5.7h-5.5C193.7,120.3,197.6,121.6,197.6,121.6z"/>
			<path class="st1" d="M153.1,171.2l-0.1-0.2l0,0l-0.1-0.2l-0.8-1.4c-0.4,0.3-0.9,0.5-1.4,0.7c-0.2,0.1-0.5,0.2-0.7,0.3
				c-0.3,0.1-0.5,0.2-0.8,0.4c0,0-0.1,0-0.1,0.1c-0.3,0.1-0.7,0.2-1,0.4c-2.6,0.9-5.5,1.4-8.3,1.3c-1.8,0-3.6-0.2-5.4-0.6
				c-0.8-0.2-1.6-0.4-2.3-0.7c-0.4-0.1-0.8-0.3-1.2-0.4c-0.9-0.4-1.8-0.8-2.6-1.2c-3.3-1.8-6-4.3-7.9-7.4c0,0,0,0,0-0.1
				c-0.1-0.2-0.2-0.4-0.3-0.6l-0.1-0.1c-0.1-0.1-0.2-0.2-0.3-0.3c-0.6-0.4-1.5-0.5-2.1,0c-0.7,0.5-0.9,1.4-0.6,2.2l0.3,7.4l0,0.4
				l0.1,2.8h37.2l-0.6-1.4L153.1,171.2z"/>
			<path class="st1" d="M221.8,128.5c-0.8-4.3-1.9-8.6-3.4-12.6h-4.7c0.7,2,1.2,4,1.7,6c0.3,1.7,0.5,3.4,0.6,5.1
				c-0.7,8.7-3.6,17.1-8.7,24.4c-6.4,9.3-15.5,15.9-26.1,19.2c-0.5,0.1-0.9,0.3-1.4,0.4c-1.5,0.4-3.1,0.8-4.7,1.1
				c-3.7,0.7-7.3,0.9-11,0.8l-0.7-1.9l-0.2-0.4l-1-2.7c9.5-5.2,11.6-15.9,9.4-25.2l1.7-0.8c2.2-0.8,5.3,0.9,6.3,1.7l2.9,2.2
				l0.2-11.6l-4-1.2l5.1-3.3l-1.9-2.5l0.5-0.5l-3.5-4.4l-18.8,3.8c-4.7-7-14.3-8.8-21.3-4.1c-3.4,2.3-5.7,5.8-6.5,9.8
				s0,8.1,2.3,11.5l0.3,0.5c0,0.1,0.1,0.2,0.1,0.2l1.9-1.1l-0.1-0.1c-3.1-5.5-1.2-12.5,4.3-15.7c5.1-2.9,11.5-1.6,15,3l-4.1,7.4
				l0.9,1c0.2,0.2,1.4,1.4,3.2,2c-7.9,9.3-21.6,12.3-32,6.3c-0.1,0-0.2-0.1-0.2-0.1c-0.6-0.3-1.6-0.7-2.6-1.2
				c-2.1-4.3-3.7-8.8-4.6-13.7c-1-5.4-1.1-10.8-0.3-16.1h-7c-0.8,5.7-0.7,11.6,0.3,17.5c0.3,1.7,0.7,3.3,1.1,4.9l-2.9,0
				c-0.2-0.8-0.4-1.7-0.5-2.6c-1.2-6.7-1.2-13.4,0-19.9H98c-2.3,8.5-2.7,17.6-1.1,26.5c1.8,9.8,5.8,18.8,11.8,26.4l0,0l0.2,2l0,0.4
				l0.2,2.8h3.7l0-0.4v0l-0.2-2.3l0-0.4l-2.1-25l0,0l-0.3-3.8l1.2,0c0.5,0.8,1.1,1.5,1.8,2.2l0,0c3.3,3.4,8.4,5.6,9.5,6
				c0.8,0.4,1.5,0.8,2.3,1.2c11.7,5.3,26.2,1.5,34.6-8.8c0.8-1,1.5-2,2.2-3.1c0.4-0.3,0.8-0.7,1.2-1.2l0.3-0.4
				c0.2-0.4,1.8-3.8-0.1-6.6l-3,2.1c0.5,0.8,0.2,2-0.1,2.6c-0.7,0.7-1.4,1.1-2.1,1.1c-0.4,0-0.8-0.1-1.1-0.3l3.8-7l16.1-3.2l1.8,2.2
				l-8.3,5.3l8.9,2.8l0,2.1c-1.9-0.8-4.5-1.5-7-0.5l-3.2,1.5l-0.1,0c0,0-0.1,0-0.1,0.1l-1.8,1l1.3,2.2c0,0.1,0.1,0.2,0.1,0.4
				c1.8,7.7,0.4,17.4-8.9,21.6c-0.9,0.4-1.3,1.4-1,2.3l1.1,3l0.2,0.4l0.5,1.5v0l0.4,1.2h23.4c2-0.8,4-1.8,5.8-2.8
				c0.2-0.1,0.5-0.3,0.7-0.4c10.7-6.1,18.9-15.7,23.4-27c-1.6,4.7-3.9,9.3-6.8,13.5c-3.7,5.3-8.2,9.9-13.3,13.5
				c-0.2,0.1-0.4,0.3-0.6,0.4c-1.5,1-3,1.9-4.5,2.8h11.6c0.9-0.9,1.7-1.8,2.6-2.8c0.1-0.1,0.3-0.3,0.4-0.4c1.2-1.5,2.4-3,3.5-4.6
				c5.9-8.5,9.4-18.2,10.5-28.2c0,3.5-0.3,6.9-0.8,10.2c-2.2,8.3-6,16-11.2,22.6c-0.1,0.1-0.2,0.3-0.3,0.4c-0.8,1-1.5,1.9-2.4,2.8
				h11.5c0.5-0.9,0.9-1.8,1.3-2.8c0.1-0.1,0.1-0.3,0.2-0.4c1.8-4.2,3.3-8.6,4.4-13.1c-0.9,4.5-2.1,8.9-3.7,13.1
				c-0.1,0.1-0.1,0.3-0.2,0.4c-0.4,0.9-0.8,1.9-1.2,2.8h1.6c0.4-0.9,0.8-1.9,1.2-2.8c0.1-0.1,0.1-0.3,0.2-0.4
				C223,157.4,224.4,142.9,221.8,128.5z"/>
		</g>
	</g>
	<g>
		<path d="M51.5,120.6l-8.9-2.4l0.5-2l7,1.9l1-3.8l1.9,0.5L51.5,120.6z"/>
		<path d="M54.4,105.7l-1.3,3.3l1.5,1.3l-0.8,2l-7.3-6.7l0.9-2.2l9.8,0.2l-0.8,2.1L54.4,105.7z M51.6,107.7l0.8-2.1l-3.4-0.2
			L51.6,107.7z"/>
		<path d="M55.6,99.6l-5.2-2.8l1-1.8l5,2.8c1,0.5,1.8,0.3,2.2-0.6c0.5-0.9,0.3-1.7-0.7-2.2l-5-2.8l1-1.8l5.2,2.8
			c2,1.1,2.3,3.1,1.3,4.9S57.6,100.7,55.6,99.6z"/>
		<path d="M60.2,89c-2.3-1.7-2.6-4.6-1.1-6.7c1.6-2.2,3.7-2.2,5-1.7l-0.8,2c-0.5-0.2-1.7-0.4-2.7,0.9c-0.8,1-0.9,2.6,0.8,3.9
			c1.5,1.1,3.1,0.7,3.9-0.5c0.6-0.8,0.8-1.9,0.1-2.6l-1.8,2.4l-1.4-1l3.1-4.2c0.2,0.1,0.5,0.3,0.7,0.5c1.9,1.4,2.4,3.9,0.9,6.1
			C65.3,90.1,62.5,90.7,60.2,89z"/>
		<path d="M75.7,77.4L73,74.9l-2.5,2.7l2.7,2.5l-1.4,1.5L65,75.2l1.4-1.5l2.6,2.5l2.5-2.7L69,71l1.4-1.5l6.7,6.4L75.7,77.4z"/>
		<path d="M80,73.3l-6-7l1.6-1.4l6,7L80,73.3z"/>
		<path d="M89.3,66l-6.6-2.7l3.5,4.9l-1.7,1.2l-5.3-7.5l2-1.4l6.1,2.6l-3.2-4.6l1.7-1.2l5.3,7.5L89.3,66z"/>
		<path d="M92.1,58.8c-1.3-2.5-0.3-5.3,2-6.5c2.4-1.2,4.3-0.4,5.2,0.7l-1.5,1.4c-0.4-0.4-1.4-1.1-2.8-0.4c-1.1,0.6-2,2-1,3.8
			c0.9,1.7,2.4,2,3.7,1.3c0.9-0.5,1.5-1.3,1.3-2.3l-2.7,1.4l-0.8-1.6l4.6-2.4c0.2,0.2,0.3,0.5,0.4,0.7c1.1,2.1,0.5,4.6-1.9,5.8
			C96.2,62,93.4,61.3,92.1,58.8z"/>
		<path d="M108.3,51.1c-0.8-2.7,0.7-5.2,3.2-6c2.6-0.8,4.3,0.4,5,1.6l-1.8,1.1c-0.3-0.5-1.1-1.4-2.7-0.9c-1.2,0.4-2.3,1.6-1.7,3.5
			c0.6,1.8,2,2.4,3.4,2c0.9-0.3,1.8-1,1.7-2l-2.9,0.9l-0.5-1.7l5-1.5c0.1,0.2,0.2,0.5,0.3,0.8c0.7,2.3-0.4,4.6-3,5.4
			C111.7,55.1,109.2,53.8,108.3,51.1z"/>
		<path d="M124.9,42.1c2.6-0.4,5,1.1,5.5,4c0.5,2.9-1.4,5.1-4,5.5c-2.6,0.4-5-1.1-5.5-4C120.4,44.7,122.3,42.5,124.9,42.1z
			 M126.1,49.5c1.3-0.2,2.5-1.3,2.2-3.2s-1.8-2.5-3.1-2.3c-1.3,0.2-2.5,1.3-2.2,3.2C123.3,49.1,124.8,49.7,126.1,49.5z"/>
		<path d="M139.6,48.3l-3.6,0.1l-0.6,1.9l-2.2,0.1l3.2-9.3l2.4-0.1l3.7,9.1l-2.2,0.1L139.6,48.3z M136.7,46.5l2.2-0.1l-1.2-3.1
			L136.7,46.5z"/>
		<path d="M149.6,43.3l-0.5,7.2l-2-0.2l0.5-7.2l-2.8-0.2l0.1-2l7.7,0.6l-0.1,2L149.6,43.3z"/>
	</g>
	<polygon points="172.4,49.5 168.9,50.8 169.1,54.5 166.8,51.7 163.3,53 165.3,49.9 163,47 166.6,47.9 168.6,44.8 168.8,48.5 	"/>
	<polygon points="39.2,136.1 42.8,135.2 43,131.5 45,134.6 48.6,133.7 46.2,136.5 48.2,139.7 44.8,138.3 42.4,141.2 42.7,137.5 	"/>
	<polygon points="190.3,218.5 191.5,222 195.2,221.9 192.3,224.2 193.5,227.7 190.5,225.6 187.5,227.8 188.6,224.3 185.5,222.2 
		189.2,222.1 	"/>
	<g>
		<path d="M224.8,90.3c0.3-0.3,0.7-1,0.1-1.9c-0.4-0.6-1.1-0.8-1.5-0.5c-0.4,0.2-0.5,0.6-0.2,1.2l0.5,1.2c0.7,1.7,0.2,3-0.9,3.7
			c-1.2,0.8-3.1,0.6-4.3-1.3c-1.4-2.1-0.6-4,0.4-4.8l1.4,1.3c-0.7,0.5-1,1.4-0.3,2.5c0.4,0.7,1,0.9,1.5,0.6c0.4-0.3,0.5-0.8,0.2-1.3
			l-0.5-1.2c-0.6-1.5-0.2-2.8,0.9-3.6c1.5-0.9,3.3-0.3,4.3,1.2c1.2,1.9,0.6,3.4-0.2,4.2L224.8,90.3z"/>
		<path d="M225.2,96.9l5.3-2.6l0.9,1.8l-5.1,2.5c-1,0.5-1.2,1.3-0.8,2.2c0.4,0.9,1.2,1.2,2.2,0.7l5.1-2.5l0.9,1.8l-5.3,2.6
			c-2.1,1-3.9,0.1-4.8-1.7C222.7,100,223.1,98,225.2,96.9z"/>
		<path d="M231.1,110.1l-0.2-0.7l-3.2,1.1l-0.7-1.9l8.7-3.1l1.2,3.4c0.6,1.7-0.2,3.2-1.7,3.8c-1.2,0.4-2.3,0.1-3.1-0.8l-2.9,3
			l-0.8-2.1L231.1,110.1z M232.9,110c0.3,0.8,0.9,1.1,1.5,0.9c0.6-0.2,0.9-0.8,0.6-1.6l-0.4-1.1l-2.1,0.7L232.9,110z"/>
		<path d="M230.1,118.3l9-2.1l1.4,5.8l-1.9,0.4l-0.9-3.8l-1.9,0.5l0.8,3.3l-1.8,0.4l-0.8-3.3l-3.4,0.8L230.1,118.3z"/>
		<path d="M237.3,131.5c2.9-0.2,4.9,1.9,5.1,4.4c0.2,2.8-1.5,4.1-2.8,4.5l-0.7-1.9c0.6-0.2,1.7-0.8,1.6-2.5c-0.1-1.2-1-2.6-3-2.4
			c-1.7,0.1-2.6,1.4-2.6,2.8c0.1,1.6,1.2,2.2,1.9,2.3l-0.4,2c-1.3-0.2-3.3-1.3-3.5-4.2C232.7,133.9,234.4,131.7,237.3,131.5z"/>
		<path d="M234.8,149.6l0.2-3.6l-1.8-0.8l0.1-2.2l9,4l-0.1,2.4l-9.4,2.9l0.1-2.2L234.8,149.6z M236.8,146.9l-0.1,2.2l3.2-0.9
			L236.8,146.9z"/>
		<path d="M230.7,164.1l6,1.2l-5.5-3.6l0.3-1.6l6.4-1.1l-5.9-1.2l0.4-1.9l9,1.9l-0.5,2.6l-6.6,1.2l5.6,3.6l-0.6,2.8l-9-1.9
			L230.7,164.1z"/>
		<path d="M231.4,173.1l-3.1-1.1l0.7-1.9l8.7,3.1l-1.2,3.3c-0.6,1.8-2.2,2.6-3.8,2c-1.6-0.6-2.4-2.2-1.7-4L231.4,173.1z
			 M232.7,174.9c-0.3,0.7,0,1.4,0.7,1.6c0.7,0.2,1.3-0.1,1.6-0.8l0.4-1.1l-2.2-0.8L232.7,174.9z"/>
	</g>
</g>
</svg>
